<mxfile host="app.diagrams.net" modified="2022-04-03T16:22:45.880Z" agent="5.0 (X11; Linux x86_64) AppleWebKit/537.36 (KHTML, like Gecko) Chrome/100.0.4896.60 Safari/537.36" etag="4BzTCUEUWN0Ak4gKsOPU" version="17.4.0" type="github">
  <diagram id="kgpKYQtTHZ0yAKxKKP6v" name="Page-1">
    <mxGraphModel dx="868" dy="424" grid="1" gridSize="10" guides="1" tooltips="1" connect="1" arrows="1" fold="1" page="1" pageScale="1" pageWidth="850" pageHeight="1100" math="0" shadow="0">
      <root>
        <mxCell id="0" />
        <mxCell id="1" parent="0" />
        <mxCell id="ZM1qN3V1S0aCcAOhJsnH-38" value="" style="rounded=0;whiteSpace=wrap;html=1;dashed=1;" vertex="1" parent="1">
          <mxGeometry x="160" width="350" height="205" as="geometry" />
        </mxCell>
        <mxCell id="ZM1qN3V1S0aCcAOhJsnH-1" value=":Object" style="shape=umlLifeline;perimeter=lifelinePerimeter;container=1;collapsible=0;recursiveResize=0;rounded=0;shadow=0;strokeWidth=1;" vertex="1" parent="1">
          <mxGeometry x="65" y="660" width="100" height="300" as="geometry" />
        </mxCell>
        <mxCell id="ZM1qN3V1S0aCcAOhJsnH-2" value="" style="points=[];perimeter=orthogonalPerimeter;rounded=0;shadow=0;strokeWidth=1;" vertex="1" parent="ZM1qN3V1S0aCcAOhJsnH-1">
          <mxGeometry x="45" y="70" width="10" height="190" as="geometry" />
        </mxCell>
        <mxCell id="ZM1qN3V1S0aCcAOhJsnH-3" value="dispatch" style="verticalAlign=bottom;startArrow=oval;endArrow=block;startSize=8;shadow=0;strokeWidth=1;" edge="1" parent="ZM1qN3V1S0aCcAOhJsnH-1" target="ZM1qN3V1S0aCcAOhJsnH-2">
          <mxGeometry relative="1" as="geometry">
            <mxPoint x="-15" y="70" as="sourcePoint" />
          </mxGeometry>
        </mxCell>
        <mxCell id="ZM1qN3V1S0aCcAOhJsnH-4" value="" style="points=[];perimeter=orthogonalPerimeter;rounded=0;shadow=0;strokeWidth=1;" vertex="1" parent="ZM1qN3V1S0aCcAOhJsnH-1">
          <mxGeometry x="50" y="120" width="10" height="80" as="geometry" />
        </mxCell>
        <mxCell id="ZM1qN3V1S0aCcAOhJsnH-5" value=":Object" style="shape=umlLifeline;perimeter=lifelinePerimeter;container=1;collapsible=0;recursiveResize=0;rounded=0;shadow=0;strokeWidth=1;" vertex="1" parent="1">
          <mxGeometry x="245" y="660" width="100" height="300" as="geometry" />
        </mxCell>
        <mxCell id="ZM1qN3V1S0aCcAOhJsnH-6" value="" style="points=[];perimeter=orthogonalPerimeter;rounded=0;shadow=0;strokeWidth=1;" vertex="1" parent="ZM1qN3V1S0aCcAOhJsnH-5">
          <mxGeometry x="45" y="80" width="10" height="160" as="geometry" />
        </mxCell>
        <mxCell id="ZM1qN3V1S0aCcAOhJsnH-7" value="return" style="verticalAlign=bottom;endArrow=open;dashed=1;endSize=8;exitX=0;exitY=0.95;shadow=0;strokeWidth=1;" edge="1" parent="1" source="ZM1qN3V1S0aCcAOhJsnH-6" target="ZM1qN3V1S0aCcAOhJsnH-2">
          <mxGeometry relative="1" as="geometry">
            <mxPoint x="220" y="816" as="targetPoint" />
          </mxGeometry>
        </mxCell>
        <mxCell id="ZM1qN3V1S0aCcAOhJsnH-8" value="dispatch" style="verticalAlign=bottom;endArrow=block;entryX=0;entryY=0;shadow=0;strokeWidth=1;" edge="1" parent="1" source="ZM1qN3V1S0aCcAOhJsnH-2" target="ZM1qN3V1S0aCcAOhJsnH-6">
          <mxGeometry relative="1" as="geometry">
            <mxPoint x="220" y="740" as="sourcePoint" />
          </mxGeometry>
        </mxCell>
        <mxCell id="ZM1qN3V1S0aCcAOhJsnH-9" value="callback" style="verticalAlign=bottom;endArrow=block;entryX=1;entryY=0;shadow=0;strokeWidth=1;" edge="1" parent="1" source="ZM1qN3V1S0aCcAOhJsnH-6" target="ZM1qN3V1S0aCcAOhJsnH-4">
          <mxGeometry relative="1" as="geometry">
            <mxPoint x="185" y="780" as="sourcePoint" />
          </mxGeometry>
        </mxCell>
        <mxCell id="ZM1qN3V1S0aCcAOhJsnH-10" value="return" style="verticalAlign=bottom;endArrow=open;dashed=1;endSize=8;exitX=1;exitY=0.95;shadow=0;strokeWidth=1;" edge="1" parent="1" source="ZM1qN3V1S0aCcAOhJsnH-4" target="ZM1qN3V1S0aCcAOhJsnH-6">
          <mxGeometry relative="1" as="geometry">
            <mxPoint x="185" y="837" as="targetPoint" />
          </mxGeometry>
        </mxCell>
        <mxCell id="ZM1qN3V1S0aCcAOhJsnH-23" value="main.py" style="shape=umlLifeline;perimeter=lifelinePerimeter;container=1;collapsible=0;recursiveResize=0;rounded=0;shadow=0;strokeWidth=1;fillColor=#e1d5e7;strokeColor=#9673a6;" vertex="1" parent="1">
          <mxGeometry x="80" y="40" width="100" height="490" as="geometry" />
        </mxCell>
        <mxCell id="ZM1qN3V1S0aCcAOhJsnH-24" value="" style="points=[];perimeter=orthogonalPerimeter;rounded=0;shadow=0;strokeWidth=1;" vertex="1" parent="ZM1qN3V1S0aCcAOhJsnH-23">
          <mxGeometry x="45" y="224" width="10" height="266" as="geometry" />
        </mxCell>
        <mxCell id="ZM1qN3V1S0aCcAOhJsnH-25" value="args" style="verticalAlign=bottom;startArrow=oval;endArrow=block;startSize=8;shadow=0;strokeWidth=1;" edge="1" parent="ZM1qN3V1S0aCcAOhJsnH-23">
          <mxGeometry relative="1" as="geometry">
            <mxPoint x="-30" y="72" as="sourcePoint" />
            <mxPoint x="45" y="72" as="targetPoint" />
          </mxGeometry>
        </mxCell>
        <mxCell id="ZM1qN3V1S0aCcAOhJsnH-27" value="create client" style="endArrow=classic;html=1;rounded=0;exitX=0.51;exitY=0.283;exitDx=0;exitDy=0;exitPerimeter=0;" edge="1" parent="1">
          <mxGeometry width="50" height="50" relative="1" as="geometry">
            <mxPoint x="131" y="128.89999999999998" as="sourcePoint" />
            <mxPoint x="250" y="129" as="targetPoint" />
          </mxGeometry>
        </mxCell>
        <mxCell id="ZM1qN3V1S0aCcAOhJsnH-31" value="" style="strokeWidth=2;html=1;shape=mxgraph.flowchart.direct_data;whiteSpace=wrap;fillColor=#dae8fc;strokeColor=#6c8ebf;" vertex="1" parent="1">
          <mxGeometry x="410" y="20" width="90" height="30" as="geometry" />
        </mxCell>
        <mxCell id="ZM1qN3V1S0aCcAOhJsnH-32" value="communication&lt;br&gt;spaces" style="endArrow=classic;html=1;rounded=0;exitX=0.49;exitY=0.29;exitDx=0;exitDy=0;exitPerimeter=0;entryX=0;entryY=0.5;entryDx=0;entryDy=0;entryPerimeter=0;" edge="1" parent="1" source="ZM1qN3V1S0aCcAOhJsnH-23" target="ZM1qN3V1S0aCcAOhJsnH-31">
          <mxGeometry width="50" height="50" relative="1" as="geometry">
            <mxPoint x="410" y="260" as="sourcePoint" />
            <mxPoint x="460" y="210" as="targetPoint" />
          </mxGeometry>
        </mxCell>
        <mxCell id="ZM1qN3V1S0aCcAOhJsnH-33" value="" style="strokeWidth=2;html=1;shape=mxgraph.flowchart.direct_data;whiteSpace=wrap;fillColor=#d5e8d4;strokeColor=#82b366;" vertex="1" parent="1">
          <mxGeometry x="410" y="60" width="90" height="30" as="geometry" />
        </mxCell>
        <mxCell id="ZM1qN3V1S0aCcAOhJsnH-34" value="" style="endArrow=classic;html=1;rounded=0;entryX=0;entryY=0.5;entryDx=0;entryDy=0;entryPerimeter=0;" edge="1" parent="1">
          <mxGeometry x="-0.197" y="-3" width="50" height="50" relative="1" as="geometry">
            <mxPoint x="310" y="70" as="sourcePoint" />
            <mxPoint x="410" y="75" as="targetPoint" />
            <mxPoint as="offset" />
          </mxGeometry>
        </mxCell>
        <mxCell id="ZM1qN3V1S0aCcAOhJsnH-36" value="" style="html=1;shadow=0;dashed=0;align=center;verticalAlign=middle;shape=mxgraph.arrows2.sharpArrow2;dy1=0.67;dx1=18;dx2=18;dy3=0.15;dx3=27;notch=0;" vertex="1" parent="1">
          <mxGeometry x="410" y="25" width="90" height="20" as="geometry" />
        </mxCell>
        <mxCell id="ZM1qN3V1S0aCcAOhJsnH-37" value="" style="html=1;shadow=0;dashed=0;align=center;verticalAlign=middle;shape=mxgraph.arrows2.sharpArrow2;dy1=0.67;dx1=18;dx2=18;dy3=0.15;dx3=27;notch=0;rotation=-180;" vertex="1" parent="1">
          <mxGeometry x="410" y="65" width="90" height="20" as="geometry" />
        </mxCell>
        <mxCell id="ZM1qN3V1S0aCcAOhJsnH-28" value="ClientÂ &#xa;(thread)" style="shape=umlLifeline;perimeter=lifelinePerimeter;container=1;collapsible=0;recursiveResize=0;rounded=0;shadow=0;strokeWidth=1;fillColor=#dae8fc;strokeColor=#6c8ebf;" vertex="1" parent="1">
          <mxGeometry x="250" y="110" width="130" height="300" as="geometry" />
        </mxCell>
        <mxCell id="ZM1qN3V1S0aCcAOhJsnH-29" value="" style="points=[];perimeter=orthogonalPerimeter;rounded=0;shadow=0;strokeWidth=1;" vertex="1" parent="ZM1qN3V1S0aCcAOhJsnH-28">
          <mxGeometry x="60" y="170" width="10" height="30" as="geometry" />
        </mxCell>
        <mxCell id="ZM1qN3V1S0aCcAOhJsnH-51" value="initialise model" style="endArrow=classic;html=1;rounded=0;entryX=0.52;entryY=0.163;entryDx=0;entryDy=0;entryPerimeter=0;" edge="1" parent="ZM1qN3V1S0aCcAOhJsnH-28" target="ZM1qN3V1S0aCcAOhJsnH-44">
          <mxGeometry width="50" height="50" relative="1" as="geometry">
            <mxPoint x="70" y="79" as="sourcePoint" />
            <mxPoint x="110" y="79.5" as="targetPoint" />
          </mxGeometry>
        </mxCell>
        <mxCell id="ZM1qN3V1S0aCcAOhJsnH-57" value="wait for task" style="text;html=1;strokeColor=none;fillColor=none;align=center;verticalAlign=middle;whiteSpace=wrap;rounded=0;dashed=1;" vertex="1" parent="ZM1qN3V1S0aCcAOhJsnH-28">
          <mxGeometry y="170" width="60" height="30" as="geometry" />
        </mxCell>
        <mxCell id="ZM1qN3V1S0aCcAOhJsnH-39" value="for each client" style="text;html=1;strokeColor=none;fillColor=none;align=center;verticalAlign=middle;whiteSpace=wrap;rounded=0;" vertex="1" parent="1">
          <mxGeometry x="510" width="60" height="30" as="geometry" />
        </mxCell>
        <mxCell id="ZM1qN3V1S0aCcAOhJsnH-40" value="" style="endArrow=classic;html=1;rounded=0;exitX=0.5;exitY=0.6;exitDx=0;exitDy=0;exitPerimeter=0;entryX=0.01;entryY=0.073;entryDx=0;entryDy=0;entryPerimeter=0;" edge="1" parent="1" target="ZM1qN3V1S0aCcAOhJsnH-46">
          <mxGeometry width="50" height="50" relative="1" as="geometry">
            <mxPoint x="130" y="226" as="sourcePoint" />
            <mxPoint x="620" y="226" as="targetPoint" />
            <Array as="points">
              <mxPoint x="410" y="226" />
            </Array>
          </mxGeometry>
        </mxCell>
        <mxCell id="ZM1qN3V1S0aCcAOhJsnH-43" value="" style="endArrow=classic;html=1;rounded=0;" edge="1" parent="1">
          <mxGeometry width="50" height="50" relative="1" as="geometry">
            <mxPoint x="320" y="160" as="sourcePoint" />
            <mxPoint x="360" y="160" as="targetPoint" />
          </mxGeometry>
        </mxCell>
        <mxCell id="ZM1qN3V1S0aCcAOhJsnH-44" value="ClientModel" style="shape=umlLifeline;perimeter=lifelinePerimeter;container=1;collapsible=0;recursiveResize=0;rounded=0;shadow=0;strokeWidth=1;fillColor=#dae8fc;strokeColor=#6c8ebf;dashed=1;" vertex="1" parent="1">
          <mxGeometry x="360" y="140" width="100" height="300" as="geometry" />
        </mxCell>
        <mxCell id="ZM1qN3V1S0aCcAOhJsnH-61" value="" style="points=[];perimeter=orthogonalPerimeter;rounded=0;shadow=0;strokeWidth=1;" vertex="1" parent="ZM1qN3V1S0aCcAOhJsnH-44">
          <mxGeometry x="45" y="170" width="10" height="65.5" as="geometry" />
        </mxCell>
        <mxCell id="ZM1qN3V1S0aCcAOhJsnH-46" value="Sever&#xa;(thread)" style="shape=umlLifeline;perimeter=lifelinePerimeter;container=1;collapsible=0;recursiveResize=0;rounded=0;shadow=0;strokeWidth=1;fillColor=#d5e8d4;strokeColor=#82b366;" vertex="1" parent="1">
          <mxGeometry x="583" y="205" width="100" height="300" as="geometry" />
        </mxCell>
        <mxCell id="ZM1qN3V1S0aCcAOhJsnH-70" value="for each epoch" style="text;html=1;strokeColor=none;fillColor=none;align=center;verticalAlign=middle;whiteSpace=wrap;rounded=0;dashed=1;" vertex="1" parent="ZM1qN3V1S0aCcAOhJsnH-46">
          <mxGeometry x="-43" y="115" width="60" height="30" as="geometry" />
        </mxCell>
        <mxCell id="ZM1qN3V1S0aCcAOhJsnH-48" value="" style="endArrow=classic;html=1;rounded=0;" edge="1" parent="1">
          <mxGeometry width="50" height="50" relative="1" as="geometry">
            <mxPoint x="633" y="255" as="sourcePoint" />
            <mxPoint x="693" y="255" as="targetPoint" />
          </mxGeometry>
        </mxCell>
        <mxCell id="ZM1qN3V1S0aCcAOhJsnH-49" value="ServerModel" style="shape=umlLifeline;perimeter=lifelinePerimeter;container=1;collapsible=0;recursiveResize=0;rounded=0;shadow=0;strokeWidth=1;fillColor=#d5e8d4;strokeColor=#82b366;dashed=1;" vertex="1" parent="1">
          <mxGeometry x="693" y="235" width="100" height="300" as="geometry" />
        </mxCell>
        <mxCell id="ZM1qN3V1S0aCcAOhJsnH-53" value="initialise model" style="endArrow=classic;html=1;rounded=0;entryX=0.52;entryY=0.163;entryDx=0;entryDy=0;entryPerimeter=0;" edge="1" parent="ZM1qN3V1S0aCcAOhJsnH-49">
          <mxGeometry width="50" height="50" relative="1" as="geometry">
            <mxPoint x="-63" y="60" as="sourcePoint" />
            <mxPoint x="47" y="60" as="targetPoint" />
            <mxPoint as="offset" />
          </mxGeometry>
        </mxCell>
        <mxCell id="ZM1qN3V1S0aCcAOhJsnH-47" value="" style="points=[];perimeter=orthogonalPerimeter;rounded=0;shadow=0;strokeWidth=1;" vertex="1" parent="ZM1qN3V1S0aCcAOhJsnH-49">
          <mxGeometry x="45" y="104.5" width="10" height="65.5" as="geometry" />
        </mxCell>
        <mxCell id="ZM1qN3V1S0aCcAOhJsnH-66" value="" style="ellipse;whiteSpace=wrap;html=1;fillColor=#000000;" vertex="1" parent="ZM1qN3V1S0aCcAOhJsnH-49">
          <mxGeometry x="40" y="185" width="20" height="20" as="geometry" />
        </mxCell>
        <mxCell id="ZM1qN3V1S0aCcAOhJsnH-50" value="start training" style="endArrow=classic;html=1;rounded=0;exitX=0.4;exitY=-0.005;exitDx=0;exitDy=0;exitPerimeter=0;entryX=0.49;entryY=0.187;entryDx=0;entryDy=0;entryPerimeter=0;" edge="1" parent="1" source="ZM1qN3V1S0aCcAOhJsnH-24" target="ZM1qN3V1S0aCcAOhJsnH-46">
          <mxGeometry width="50" height="50" relative="1" as="geometry">
            <mxPoint x="410" y="310" as="sourcePoint" />
            <mxPoint x="460" y="260" as="targetPoint" />
          </mxGeometry>
        </mxCell>
        <mxCell id="ZM1qN3V1S0aCcAOhJsnH-54" value="runEpoch" style="endArrow=classic;html=1;rounded=0;entryX=0.52;entryY=0.163;entryDx=0;entryDy=0;entryPerimeter=0;" edge="1" parent="1">
          <mxGeometry width="50" height="50" relative="1" as="geometry">
            <mxPoint x="634" y="333" as="sourcePoint" />
            <mxPoint x="744" y="333" as="targetPoint" />
            <mxPoint as="offset" />
          </mxGeometry>
        </mxCell>
        <mxCell id="ZM1qN3V1S0aCcAOhJsnH-55" value="" style="endArrow=classic;html=1;rounded=0;exitX=0.9;exitY=0.374;exitDx=0;exitDy=0;exitPerimeter=0;entryX=0;entryY=0;entryDx=0;entryDy=6.7;entryPerimeter=0;" edge="1" parent="1" source="ZM1qN3V1S0aCcAOhJsnH-47" target="ZM1qN3V1S0aCcAOhJsnH-37">
          <mxGeometry width="50" height="50" relative="1" as="geometry">
            <mxPoint x="410" y="370" as="sourcePoint" />
            <mxPoint x="800" y="370" as="targetPoint" />
            <Array as="points">
              <mxPoint x="820" y="364" />
              <mxPoint x="820" y="78" />
            </Array>
          </mxGeometry>
        </mxCell>
        <mxCell id="ZM1qN3V1S0aCcAOhJsnH-56" value="send task" style="text;html=1;strokeColor=none;fillColor=none;align=center;verticalAlign=middle;whiteSpace=wrap;rounded=0;dashed=1;" vertex="1" parent="1">
          <mxGeometry x="623" y="55" width="60" height="30" as="geometry" />
        </mxCell>
        <mxCell id="ZM1qN3V1S0aCcAOhJsnH-59" value="" style="endArrow=classic;html=1;rounded=0;exitX=0.778;exitY=1.067;exitDx=0;exitDy=0;exitPerimeter=0;entryX=0.9;entryY=0.633;entryDx=0;entryDy=0;entryPerimeter=0;" edge="1" parent="1" source="ZM1qN3V1S0aCcAOhJsnH-33" target="ZM1qN3V1S0aCcAOhJsnH-29">
          <mxGeometry width="50" height="50" relative="1" as="geometry">
            <mxPoint x="480" y="250" as="sourcePoint" />
            <mxPoint x="530" y="200" as="targetPoint" />
            <Array as="points">
              <mxPoint x="480" y="299" />
            </Array>
          </mxGeometry>
        </mxCell>
        <mxCell id="ZM1qN3V1S0aCcAOhJsnH-60" value="new_task" style="endArrow=classic;html=1;rounded=0;exitX=1;exitY=1;exitDx=0;exitDy=0;" edge="1" parent="1" source="ZM1qN3V1S0aCcAOhJsnH-57" target="ZM1qN3V1S0aCcAOhJsnH-44">
          <mxGeometry width="50" height="50" relative="1" as="geometry">
            <mxPoint x="480" y="310" as="sourcePoint" />
            <mxPoint x="530" y="260" as="targetPoint" />
          </mxGeometry>
        </mxCell>
        <mxCell id="ZM1qN3V1S0aCcAOhJsnH-62" value="results" style="endArrow=classic;html=1;rounded=0;exitX=0.7;exitY=1.038;exitDx=0;exitDy=0;exitPerimeter=0;entryX=0.5;entryY=0.893;entryDx=0;entryDy=0;entryPerimeter=0;" edge="1" parent="1" source="ZM1qN3V1S0aCcAOhJsnH-61" target="ZM1qN3V1S0aCcAOhJsnH-28">
          <mxGeometry width="50" height="50" relative="1" as="geometry">
            <mxPoint x="480" y="310" as="sourcePoint" />
            <mxPoint x="530" y="260" as="targetPoint" />
          </mxGeometry>
        </mxCell>
        <mxCell id="ZM1qN3V1S0aCcAOhJsnH-63" value="" style="endArrow=classic;html=1;rounded=0;exitX=0.531;exitY=0.9;exitDx=0;exitDy=0;exitPerimeter=0;entryX=0;entryY=0.5;entryDx=0;entryDy=0;entryPerimeter=0;" edge="1" parent="1" source="ZM1qN3V1S0aCcAOhJsnH-28" target="ZM1qN3V1S0aCcAOhJsnH-36">
          <mxGeometry width="50" height="50" relative="1" as="geometry">
            <mxPoint x="480" y="250" as="sourcePoint" />
            <mxPoint x="530" y="200" as="targetPoint" />
            <Array as="points">
              <mxPoint x="170" y="380" />
              <mxPoint x="170" y="35" />
            </Array>
          </mxGeometry>
        </mxCell>
        <mxCell id="ZM1qN3V1S0aCcAOhJsnH-64" value="send resuls" style="text;html=1;strokeColor=none;fillColor=none;align=center;verticalAlign=middle;whiteSpace=wrap;rounded=0;dashed=1;" vertex="1" parent="1">
          <mxGeometry x="265" y="20" width="60" height="30" as="geometry" />
        </mxCell>
        <mxCell id="ZM1qN3V1S0aCcAOhJsnH-65" value="" style="endArrow=classic;html=1;rounded=0;exitX=1;exitY=0.5;exitDx=0;exitDy=0;exitPerimeter=0;entryX=1;entryY=0.5;entryDx=0;entryDy=0;" edge="1" parent="1" source="ZM1qN3V1S0aCcAOhJsnH-31" target="ZM1qN3V1S0aCcAOhJsnH-66">
          <mxGeometry width="50" height="50" relative="1" as="geometry">
            <mxPoint x="480" y="190" as="sourcePoint" />
            <mxPoint x="530" y="140" as="targetPoint" />
            <Array as="points">
              <mxPoint x="830" y="35" />
              <mxPoint x="830" y="430" />
              <mxPoint x="790" y="430" />
            </Array>
          </mxGeometry>
        </mxCell>
        <mxCell id="ZM1qN3V1S0aCcAOhJsnH-67" value="gather results&amp;nbsp;" style="text;html=1;strokeColor=none;fillColor=none;align=center;verticalAlign=middle;whiteSpace=wrap;rounded=0;" vertex="1" parent="1">
          <mxGeometry x="750" y="440" width="60" height="30" as="geometry" />
        </mxCell>
        <mxCell id="ZM1qN3V1S0aCcAOhJsnH-69" value="" style="rounded=0;whiteSpace=wrap;html=1;fillColor=none;dashed=1;" vertex="1" parent="1">
          <mxGeometry x="610" y="320" width="230" height="150" as="geometry" />
        </mxCell>
        <mxCell id="ZM1qN3V1S0aCcAOhJsnH-71" value="end training" style="endArrow=classic;html=1;rounded=0;exitX=0.5;exitY=0.987;exitDx=0;exitDy=0;exitPerimeter=0;entryX=0.1;entryY=1.011;entryDx=0;entryDy=0;entryPerimeter=0;" edge="1" parent="1" source="ZM1qN3V1S0aCcAOhJsnH-49" target="ZM1qN3V1S0aCcAOhJsnH-24">
          <mxGeometry width="50" height="50" relative="1" as="geometry">
            <mxPoint x="370" y="450" as="sourcePoint" />
            <mxPoint x="420" y="400" as="targetPoint" />
          </mxGeometry>
        </mxCell>
      </root>
    </mxGraphModel>
  </diagram>
</mxfile>
